<svg width="40" height="40" viewBox="0 0 40 40" xmlns="http://www.w3.org/2000/svg">
<path d="M14.8623 12.0531L14.1827 11.3195L14.8623 12.0531ZM18.6131 9.21038L18.9098 10.1653L18.6131 9.21038ZM25.1376 12.0531L24.458 12.7866L25.1376 12.0531ZM21.3869 9.21038L21.0902 10.1653L21.3869 9.21038ZM10.6208 31.461L10.1563 32.3466L10.6208 31.461ZM8.52317 29.3016L7.62694 29.7452L8.52317 29.3016ZM31.4768 29.3016L32.3731 29.7452L31.4768 29.3016ZM29.3792 31.461L29.8437 32.3466L29.3792 31.461ZM31.8491 19.3825L32.8194 19.1404L31.8491 19.3825ZM29.4576 16.0555L30.1373 15.322L29.4576 16.0555ZM31.1976 17.8766L32.0377 17.3342L31.1976 17.8766ZM8.15088 19.3825L7.18062 19.1404L8.15088 19.3825ZM10.5424 16.0555L9.86272 15.322L10.5424 16.0555ZM8.80239 17.8766L7.96227 17.3342H7.96227L8.80239 17.8766ZM21.7765 23.1022L21.5176 24.0681L21.7765 23.1022ZM23.8978 25.2235L24.8637 24.9647V24.9647L23.8978 25.2235ZM18.2235 23.1022L17.9647 22.1363H17.9647L18.2235 23.1022ZM16.1022 25.2235L15.1363 24.9647V24.9647L16.1022 25.2235ZM31 21.9321V24.0935H33V21.9321H31ZM24.32 30.9996H15.68V32.9996H24.32V30.9996ZM9 24.0935V21.9321H7V24.0935H9ZM11.222 16.7891L15.542 12.7866L14.1827 11.3195L9.86272 15.322L11.222 16.7891ZM24.458 12.7866L28.778 16.7891L30.1373 15.322L25.8173 11.3195L24.458 12.7866ZM15.542 12.7866C16.4615 11.9347 17.1094 11.3354 17.6539 10.9048C18.1891 10.4816 18.5617 10.2735 18.9098 10.1653L18.3163 8.25541C17.6376 8.46631 17.0428 8.8383 16.4133 9.33607C15.7932 9.82648 15.0791 10.489 14.1827 11.3195L15.542 12.7866ZM25.8173 11.3195C24.9209 10.489 24.2068 9.82648 23.5867 9.33607C22.9572 8.8383 22.3624 8.46631 21.6837 8.25541L21.0902 10.1653C21.4383 10.2735 21.8109 10.4816 22.3461 10.9048C22.8906 11.3354 23.5385 11.9347 24.458 12.7866L25.8173 11.3195ZM18.9098 10.1653C19.621 9.94437 20.379 9.94437 21.0902 10.1653L21.6837 8.25541C20.5859 7.91434 19.4141 7.91434 18.3163 8.25541L18.9098 10.1653ZM15.68 30.9996C14.3189 30.9996 13.36 30.9988 12.6112 30.9358C11.875 30.8739 11.4317 30.7572 11.0854 30.5755L10.1563 32.3466C10.8367 32.7035 11.579 32.8561 12.4436 32.9288C13.2956 33.0004 14.3529 32.9996 15.68 32.9996V30.9996ZM7 24.0935C7 25.4612 6.99927 26.5454 7.06853 27.4181C7.13866 28.3016 7.28524 29.0548 7.62694 29.7452L9.4194 28.858C9.23793 28.4914 9.12293 28.0242 9.06226 27.2598C9.00073 26.4846 9 25.4932 9 24.0935H7ZM11.0854 30.5755C10.3725 30.2016 9.78767 29.6021 9.4194 28.858L7.62694 29.7452C8.17905 30.8607 9.06279 31.773 10.1563 32.3466L11.0854 30.5755ZM31 24.0935C31 25.4932 30.9993 26.4846 30.9377 27.2598C30.8771 28.0242 30.7621 28.4914 30.5806 28.858L32.3731 29.7452C32.7148 29.0548 32.8613 28.3016 32.9315 27.4181C33.0007 26.5454 33 25.4612 33 24.0935H31ZM24.32 32.9996C25.6471 32.9996 26.7044 33.0004 27.5564 32.9288C28.421 32.8561 29.1633 32.7035 29.8437 32.3466L28.9146 30.5755C28.5683 30.7572 28.125 30.8739 27.3888 30.9358C26.64 30.9988 25.6811 30.9996 24.32 30.9996V32.9996ZM30.5806 28.858C30.2123 29.6021 29.6275 30.2016 28.9146 30.5755L29.8437 32.3466C30.9372 31.773 31.8209 30.8607 32.3731 29.7452L30.5806 28.858ZM33 21.9321C33 20.6856 33.007 19.8923 32.8194 19.1404L30.8789 19.6246C30.993 20.0823 31 20.5855 31 21.9321H33ZM28.778 16.7891C29.7512 17.6907 30.1058 18.0292 30.3575 18.419L32.0377 17.3342C31.6179 16.6839 31.0364 16.155 30.1373 15.322L28.778 16.7891ZM32.8194 19.1404C32.6593 18.4986 32.3953 17.888 32.0377 17.3342L30.3575 18.419C30.595 18.7869 30.7715 19.1944 30.8789 19.6246L32.8194 19.1404ZM9 21.9321C9 20.5855 9.00695 20.0823 9.12114 19.6246L7.18062 19.1404C6.99305 19.8923 7 20.6856 7 21.9321H9ZM9.86272 15.322C8.96361 16.155 8.38208 16.6839 7.96227 17.3342L9.64252 18.419C9.89418 18.0292 10.2488 17.6907 11.222 16.7891L9.86272 15.322ZM9.12114 19.6246C9.22846 19.1944 9.40496 18.7869 9.64252 18.419L7.96227 17.3342C7.60471 17.888 7.34074 18.4986 7.18062 19.1404L9.12114 19.6246ZM23 27V32H25V27H23ZM17 32V27H15V32H17ZM20 24C20.9944 24 21.2954 24.0086 21.5176 24.0681L22.0353 22.1363C21.4946 21.9914 20.8656 22 20 22V24ZM25 27C25 26.1344 25.0086 25.5054 24.8637 24.9647L22.9319 25.4824C22.9914 25.7046 23 26.0056 23 27H25ZM21.5176 24.0681C22.2078 24.2531 22.7469 24.7922 22.9319 25.4824L24.8637 24.9647C24.4938 23.5844 23.4156 22.5062 22.0353 22.1363L21.5176 24.0681ZM20 22C19.1344 22 18.5054 21.9914 17.9647 22.1363L18.4824 24.0681C18.7046 24.0086 19.0056 24 20 24V22ZM17 27C17 26.0056 17.0086 25.7046 17.0681 25.4824L15.1363 24.9647C14.9914 25.5054 15 26.1344 15 27H17ZM17.9647 22.1363C16.5844 22.5062 15.5062 23.5844 15.1363 24.9647L17.0681 25.4824C17.2531 24.7922 17.7922 24.2531 18.4824 24.0681L17.9647 22.1363Z" />
</svg>
